<svg width="34" height="34" viewBox="0 0 34 34" fill="none" xmlns="http://www.w3.org/2000/svg">
<g clip-path="url(#clip0)">
<path d="M33.2905 2.26193L20.8583 11.2497L18.8183 12.7279C17.7376 13.5263 16.2625 13.5263 15.1818 12.7279L13.1418 11.2497L0.694824 2.27669C1.38713 1.30852 2.50546 0.735534 3.69571 0.739276H30.3044C31.4859 0.740315 32.5957 1.30623 33.2905 2.26193Z" fill="#FFD54F"/>
<path d="M0.694838 2.27588L13.1418 11.2489L1.07921 23.3115C0.386551 22.6171 -0.00170006 21.6758 3.2276e-05 20.695V4.43416C-0.00322452 3.65918 0.240065 2.90333 0.694838 2.27588Z" fill="#FFC107"/>
<path d="M34.0001 4.43476V20.6956C34.0018 21.6765 33.6137 22.6178 32.921 23.3122L20.8584 11.2496L33.2905 2.26172C33.7521 2.89215 34.0006 3.65334 34.0001 4.43476Z" fill="#FFC107"/>
<path d="M22.174 27.348C21.1924 27.348 20.6957 26.6089 20.6957 25.1306C20.7199 23.0652 19.0652 21.3713 16.9998 21.3471C14.9343 21.3229 13.2404 22.9777 13.2163 25.0431C13.1921 27.1085 14.8468 28.8024 16.9122 28.8266C18.0192 28.8395 19.075 28.3614 19.7955 27.521C20.2863 28.362 21.2009 28.8639 22.174 28.8262C25.1305 28.8262 25.1305 26.0442 25.1305 25.1306C25.1306 20.6403 21.4905 17.0001 17.0002 17C12.51 16.9999 8.86977 20.64 8.86963 25.1303C8.86956 29.6206 12.5096 33.2608 16.9999 33.261C19.1095 33.261 21.1366 32.441 22.6529 30.9743C22.9464 30.6885 22.9527 30.219 22.667 29.9254C22.3812 29.6319 21.9117 29.6257 21.6182 29.9114C18.9739 32.4619 14.7626 32.3858 12.2121 29.7415C9.66165 27.0972 9.73774 22.8859 12.382 20.3354C15.0263 17.785 19.2376 17.861 21.7881 20.5053C22.9857 21.7471 23.6541 23.4056 23.6523 25.1307C23.6523 26.7878 23.2797 27.348 22.174 27.348ZM17.0001 27.348C15.7755 27.348 14.7827 26.3552 14.7827 25.1306C14.7827 23.906 15.7755 22.9132 17.0001 22.9132C18.2247 22.9132 19.2175 23.906 19.2175 25.1306C19.2175 26.3552 18.2247 27.348 17.0001 27.348Z" fill="#455A64"/>
<path d="M20.8582 11.2495L18.8182 12.7277C17.7375 13.5261 16.2624 13.5261 15.1817 12.7277L13.1417 11.2495L1.0791 23.3121C1.77349 24.0048 2.71477 24.393 3.69562 24.3912H7.42818C7.82807 19.1053 12.4373 15.1444 17.7232 15.5443C22.4531 15.9021 26.2124 19.6613 26.5702 24.3912H30.3043C31.2851 24.393 32.2264 24.0048 32.9208 23.3121L20.8582 11.2495Z" fill="#FFA000"/>
</g>
<defs>
<clipPath id="clip0">
<rect width="34" height="34" fill="white"/>
</clipPath>
</defs>
</svg>
