<svg width="21" height="21" viewBox="0 0 21 21" fill="none" xmlns="http://www.w3.org/2000/svg">
<path d="M14.5255 0H5.53627C2.48357 0 0 2.48999 0 5.55044V14.5625C0 17.623 2.48357 20.1129 5.53627 20.1129H14.5255C17.5784 20.1129 20.062 17.6229 20.062 14.5625V5.55044C20.0621 2.48999 17.5784 0 14.5255 0ZM18.2821 14.5625C18.2821 16.6391 16.5969 18.3284 14.5256 18.3284H5.53627C3.46506 18.3285 1.78 16.6391 1.78 14.5625V5.55044C1.78 3.47398 3.46506 1.78452 5.53627 1.78452H14.5255C16.5968 1.78452 18.282 3.47398 18.282 5.55044V14.5625H18.2821Z" fill="white"/>
<path d="M10.031 4.87415C7.18054 4.87415 4.86157 7.19901 4.86157 10.0567C4.86157 12.9143 7.18054 15.2391 10.031 15.2391C12.8815 15.2391 15.2004 12.9143 15.2004 10.0567C15.2004 7.19901 12.8815 4.87415 10.031 4.87415ZM10.031 13.4544C8.16214 13.4544 6.64156 11.9302 6.64156 10.0566C6.64156 8.18287 8.16202 6.65854 10.031 6.65854C11.9 6.65854 13.4205 8.18287 13.4205 10.0566C13.4205 11.9302 11.8999 13.4544 10.031 13.4544Z" fill="white"/>
<path d="M15.4173 3.3609C15.0743 3.3609 14.7374 3.50009 14.4952 3.74398C14.2518 3.98667 14.1119 4.32454 14.1119 4.66955C14.1119 5.01349 14.252 5.35124 14.4952 5.59512C14.7373 5.83782 15.0743 5.9782 15.4173 5.9782C15.7614 5.9782 16.0973 5.83782 16.3405 5.59512C16.5838 5.35124 16.7227 5.01337 16.7227 4.66955C16.7227 4.32454 16.5838 3.98667 16.3405 3.74398C16.0985 3.50009 15.7614 3.3609 15.4173 3.3609Z" fill="white"/>
</svg>
