<svg width="20" height="20" viewBox="0 0 20 20" fill="none" xmlns="http://www.w3.org/2000/svg">
<path d="M14.4503 0H5.50761C2.47072 0 0 2.47083 0 5.50773V14.4504C0 17.4874 2.47072 19.9582 5.50761 19.9582H14.4503C17.4874 19.9582 19.9582 17.4873 19.9582 14.4504V5.50773C19.9583 2.47083 17.4874 0 14.4503 0ZM18.1875 14.4504C18.1875 16.511 16.511 18.1874 14.4504 18.1874H5.50761C3.44713 18.1875 1.77078 16.511 1.77078 14.4504V5.50773C1.77078 3.44725 3.44713 1.77078 5.50761 1.77078H14.4503C16.5109 1.77078 18.1874 3.44725 18.1874 5.50773V14.4504H18.1875Z" fill="white"/>
<path d="M9.97902 4.83691C7.14328 4.83691 4.8363 7.14389 4.8363 9.97963C4.8363 12.8152 7.14328 15.1221 9.97902 15.1221C12.8148 15.1221 15.1217 12.8152 15.1217 9.97963C15.1217 7.14389 12.8148 4.83691 9.97902 4.83691ZM9.97902 13.3512C8.11981 13.3512 6.60709 11.8387 6.60709 9.97951C6.60709 8.12018 8.11969 6.60758 9.97902 6.60758C11.8383 6.60758 13.3509 8.12018 13.3509 9.97951C13.3509 11.8387 11.8382 13.3512 9.97902 13.3512Z" fill="white"/>
<path d="M15.3375 3.33496C14.9963 3.33496 14.6612 3.47308 14.4202 3.71509C14.1781 3.95592 14.0389 4.29118 14.0389 4.63354C14.0389 4.97483 14.1782 5.30998 14.4202 5.55198C14.6611 5.79281 14.9963 5.93211 15.3375 5.93211C15.6799 5.93211 16.014 5.79281 16.256 5.55198C16.498 5.30998 16.6361 4.97471 16.6361 4.63354C16.6361 4.29118 16.498 3.95592 16.256 3.71509C16.0151 3.47308 15.6799 3.33496 15.3375 3.33496Z" fill="white"/>
</svg>
