<svg width="24" height="14" viewBox="0 0 24 14" fill="none" xmlns="http://www.w3.org/2000/svg">
<path d="M19.322 7.73011C18.9455 7.25829 19.0532 7.04838 19.322 6.62663C19.3268 6.62182 22.4344 2.36005 22.7546 0.914749L22.7566 0.913786C22.9157 0.387083 22.7566 0 21.9872 0H19.4413C18.7932 0 18.4944 0.332198 18.3343 0.703875C18.3343 0.703875 17.0381 3.78321 15.2043 5.77929C14.6125 6.35606 14.3389 6.54094 14.0158 6.54094C13.8567 6.54094 13.6093 6.35606 13.6093 5.82936V0.913786C13.6093 0.282128 13.4279 0 12.8913 0H8.8882C8.48168 0 8.24009 0.294645 8.24009 0.56907C8.24009 1.16799 9.15695 1.30568 9.25204 2.99075V6.64685C9.25204 7.44798 9.10553 7.5953 8.78051 7.5953C7.91507 7.5953 5.81454 4.50345 4.56975 0.964819C4.31846 0.278276 4.07299 0.000962824 3.42003 0.000962824H0.8732C0.146503 0.000962824 0 0.333161 0 0.704838C0 1.36153 0.865438 4.6267 4.02448 8.94047C6.12986 11.885 9.09486 13.4805 11.7921 13.4805C13.4133 13.4805 13.6112 13.1262 13.6112 12.5167C13.6112 9.70308 13.4647 9.43732 14.2768 9.43732C14.6533 9.43732 15.3014 9.62219 16.8149 11.0425C18.5448 12.7266 18.8291 13.4805 19.7974 13.4805H22.3432C23.069 13.4805 23.4367 13.1262 23.2252 12.4271C22.741 10.9568 19.4694 7.93232 19.322 7.73011V7.73011Z" fill="white"/>
</svg>
