<svg width="20" height="20" viewBox="0 0 20 20" fill="none" xmlns="http://www.w3.org/2000/svg">
<path fill-rule="evenodd" clip-rule="evenodd" d="M17.0503 2.90041C15.1741 1.03104 12.679 0.00109633 10.0208 0C4.54339 0 0.0855581 4.43638 0.0833548 9.88906C0.0826205 11.6321 0.540154 13.3336 1.40981 14.8334L0 19.9582L5.268 18.5829C6.71955 19.3709 8.35372 19.7862 10.0168 19.7866H10.0209C15.4978 19.7866 19.9561 15.3499 19.9582 9.89698C19.9593 7.25432 18.9266 4.76966 17.0503 2.90041ZM10.0208 18.1164H10.0174C8.53536 18.1158 7.08186 17.7194 5.81354 16.9706L5.51207 16.7924L2.38596 17.6086L3.22036 14.5753L3.02391 14.2643C2.19709 12.9555 1.76049 11.4428 1.76122 9.88967C1.76294 5.35754 5.46825 1.67033 10.0241 1.67033C12.2303 1.67106 14.3041 2.52717 15.8635 4.08092C17.4229 5.63467 18.2811 7.69992 18.2804 9.89637C18.2785 14.4289 14.5734 18.1164 10.0208 18.1164V18.1164ZM14.5514 11.96C14.3031 11.8363 13.0823 11.2386 12.8546 11.1561C12.6272 11.0736 12.4615 11.0325 12.2961 11.2798C12.1305 11.5271 11.6547 12.0838 11.5098 12.2486C11.3649 12.4136 11.2202 12.4343 10.9719 12.3105C10.7235 12.1869 9.92351 11.9258 8.97503 11.0839C8.23695 10.4287 7.73866 9.61948 7.59374 9.3722C7.44906 9.12467 7.59251 9.00383 7.70267 8.86788C7.97147 8.53569 8.24062 8.18743 8.32337 8.02261C8.40623 7.85767 8.36474 7.71332 8.30256 7.58968C8.24062 7.46604 7.74404 6.24972 7.53719 5.75478C7.33547 5.27313 7.13094 5.33817 6.97843 5.33062C6.83375 5.32343 6.66814 5.32197 6.50253 5.32197C6.33705 5.32197 6.06801 5.38373 5.84035 5.63126C5.6128 5.87867 4.97143 6.47641 4.97143 7.69274C4.97143 8.90906 5.86116 10.0841 5.98527 10.249C6.10938 10.414 7.73621 12.9099 10.2269 13.9802C10.8194 14.2351 11.2818 14.387 11.6425 14.5009C12.2374 14.6889 12.7785 14.6624 13.2064 14.5988C13.6835 14.5278 14.6753 14.0009 14.8825 13.4238C15.0893 12.8465 15.0893 12.3518 15.0271 12.2486C14.9652 12.1456 14.7996 12.0838 14.5514 11.96V11.96Z" fill="white"/>
</svg>
