<svg width="23" height="18" viewBox="0 0 23 18" fill="none" xmlns="http://www.w3.org/2000/svg">
<path d="M14.7911 7.55464L9.79402 4.82044C9.50669 4.66323 9.16707 4.6691 8.88544 4.83597C8.60363 5.00302 8.43555 5.29812 8.43555 5.62565V11.0471C8.43555 11.3731 8.60259 11.6677 8.8825 11.8349C9.02867 11.9222 9.19071 11.966 9.3531 11.966C9.50186 11.966 9.65096 11.9293 9.78815 11.8554L14.7854 9.16834C15.0821 9.00871 15.2672 8.70033 15.2686 8.3633C15.2698 8.02627 15.0869 7.71651 14.7911 7.55464V7.55464ZM9.76106 10.3651V6.31317L13.4958 8.35674L9.76106 10.3651Z" fill="white"/>
<path d="M22.4527 4.04348L22.4517 4.03313C22.4325 3.85107 22.2418 2.23167 21.4546 1.408C20.5446 0.43919 19.513 0.321498 19.0169 0.265067C18.9758 0.260408 18.9382 0.256094 18.9045 0.251607L18.865 0.247465C15.8747 0.0300272 11.3587 0.00034514 11.3135 0.00017257L11.3095 0L11.3056 0.00017257C11.2604 0.00034514 6.74438 0.0300272 3.72716 0.247465L3.6873 0.251607C3.6552 0.255921 3.61983 0.25989 3.58134 0.264377C3.0909 0.32098 2.07032 0.438845 1.15777 1.44268C0.407955 2.25756 0.191207 3.84227 0.168946 4.02036L0.166357 4.04348C0.159627 4.11924 0 5.92277 0 7.73337V9.42594C0 11.2365 0.159627 13.0401 0.166357 13.116L0.167565 13.1274C0.186721 13.3065 0.377238 14.8962 1.16088 15.7203C2.01648 16.6566 3.09832 16.7805 3.68022 16.8471C3.7722 16.8577 3.85141 16.8666 3.90543 16.8761L3.95772 16.8834C5.68428 17.0477 11.0976 17.1286 11.3271 17.1319L11.334 17.132L11.3409 17.1319C11.3862 17.1317 15.902 17.102 18.8923 16.8846L18.9318 16.8804C18.9696 16.8754 19.012 16.8709 19.0586 16.8661C19.5463 16.8143 20.5614 16.7068 21.4613 15.7166C22.2111 14.9016 22.428 13.3169 22.4501 13.139L22.4527 13.1158C22.4595 13.0399 22.6193 11.2365 22.6193 9.42594V7.73337C22.6191 5.92277 22.4595 4.11942 22.4527 4.04348V4.04348ZM21.2936 9.42594C21.2936 11.1018 21.1472 12.8276 21.1334 12.9861C21.0772 13.4225 20.8485 14.4251 20.4832 14.8222C19.9199 15.4419 19.3413 15.5033 18.9188 15.548C18.8678 15.5534 18.8205 15.5586 18.7777 15.5639C15.8854 15.7731 11.5399 15.8052 11.3397 15.8064C11.1152 15.8031 5.78109 15.7215 4.10716 15.566C4.0214 15.552 3.92873 15.5413 3.83105 15.5303C3.3356 15.4735 2.6574 15.3958 2.1359 14.8222L2.12364 14.8091C1.7647 14.4351 1.5426 13.4976 1.48617 12.9912C1.47564 12.8715 1.32551 11.1252 1.32551 9.42594V7.73337C1.32551 6.05945 1.4715 4.33547 1.48565 4.17377C1.55278 3.65969 1.78575 2.7178 2.1359 2.33711C2.71642 1.69861 3.32853 1.62785 3.73338 1.58109C3.77203 1.5766 3.8081 1.57246 3.84141 1.56814C6.77578 1.35795 11.1525 1.32672 11.3095 1.32551C11.4666 1.32654 15.8417 1.35795 18.7501 1.56814C18.7858 1.57263 18.8248 1.57712 18.8667 1.58195C19.2831 1.6294 19.9125 1.70119 20.4901 2.31727L20.4954 2.32296C20.8544 2.69692 21.0765 3.65089 21.1329 4.16739C21.1429 4.28042 21.2936 6.03045 21.2936 7.73337V9.42594Z" fill="white"/>
</svg>
