<svg width="100" height="111" viewBox="0 0 100 111" fill="none" xmlns="http://www.w3.org/2000/svg">
<path d="M92.8022 14.867L94.6029 19.9302C94.6799 20.1469 94.8326 20.3186 95.0252 20.4056L99.5234 22.4323C100.159 22.7187 100.159 23.7312 99.5234 24.0175L95.0252 26.0442C94.8326 26.1309 94.6801 26.3028 94.6029 26.5196L92.8022 31.5827C92.5479 32.298 91.6482 32.298 91.3939 31.5827L89.5932 26.5196C89.5162 26.3028 89.3635 26.1311 89.1709 26.0442L84.6726 24.0175C84.0372 23.7312 84.0372 22.7185 84.6726 22.4323L89.1709 20.4056C89.3635 20.3188 89.516 20.1469 89.5932 19.9302L91.3939 14.867C91.6482 14.1518 92.5477 14.1518 92.8022 14.867Z" fill="#F0C11C"/>
<path d="M25.4998 0.397968L26.8354 4.15375C26.8925 4.31444 27.0058 4.44192 27.1486 4.50642L30.4855 6.00985C30.957 6.22232 30.957 6.97339 30.4855 7.18564L27.1486 8.68907C27.0058 8.75335 26.8925 8.88083 26.8354 9.04174L25.4998 12.7975C25.311 13.3281 24.6436 13.3281 24.4549 12.7975L23.1193 9.04174C23.0621 8.88104 22.9489 8.75356 22.8061 8.68907L19.4692 7.18564C18.9979 6.97317 18.9979 6.2221 19.4692 6.00985L22.8061 4.50642C22.9489 4.44214 23.0621 4.31466 23.1193 4.15375L24.4549 0.397968C24.6436 -0.132656 25.311 -0.132656 25.4998 0.397968V0.397968Z" fill="#F0C11C"/>
<path d="M80.0384 8.24002C80.0384 9.70118 78.854 10.8856 77.3929 10.8856C75.9317 10.8856 74.7471 9.70096 74.7471 8.24002C74.7471 6.77887 75.9315 5.59424 77.3929 5.59424C78.854 5.59424 80.0384 6.77865 80.0384 8.24002Z" fill="#F0C11C"/>
<path d="M7.81613 22.9774C7.81613 25.1357 6.06636 26.8855 3.90806 26.8855C1.74976 26.8855 0 25.1357 0 22.9774C0 20.8191 1.74976 19.0693 3.90806 19.0693C6.06636 19.0696 7.81613 20.8191 7.81613 22.9774V22.9774Z" fill="#F0C11C"/>
<path d="M48.1695 110.439C23.5326 110.439 3.48926 90.395 3.48926 65.7584C3.48926 41.1217 23.5326 21.0781 48.1695 21.0781C72.8064 21.0781 92.8497 41.1217 92.8497 65.7584C92.8495 90.395 72.8062 110.439 48.1695 110.439V110.439ZM48.1695 25.4163C25.9247 25.4163 7.82764 43.5136 7.82764 65.7581C7.82764 88.0027 25.9249 106.1 48.1695 106.1C70.4141 106.1 88.5113 88.0029 88.5113 65.7584C88.5113 43.5138 70.4141 25.4163 48.1695 25.4163V25.4163Z" fill="#F0C11C"/>
<path d="M38.1198 55.7561C36.922 55.7561 35.9507 54.7851 35.9507 53.5871C35.9507 50.2579 33.2424 47.5496 29.9135 47.5496C26.5844 47.5496 23.876 50.2579 23.876 53.5871C23.876 54.7851 22.9047 55.7561 21.7069 55.7561C20.5091 55.7561 19.5378 54.7851 19.5378 53.5871C19.5378 47.8658 24.1924 43.2114 29.9137 43.2114C35.6347 43.2114 40.2893 47.866 40.2893 53.5871C40.2889 54.7851 39.3176 55.7561 38.1198 55.7561Z" fill="#F0C11C"/>
<path d="M74.632 55.7561C73.4342 55.7561 72.4629 54.7851 72.4629 53.5871C72.4629 50.2579 69.7546 47.5496 66.4255 47.5496C63.0966 47.5496 60.3882 50.2579 60.3882 53.5871C60.3882 54.7851 59.4169 55.7561 58.2191 55.7561C57.0213 55.7561 56.05 54.7851 56.05 53.5871C56.05 47.8658 60.7047 43.2114 66.4257 43.2114C72.1469 43.2114 76.8015 47.866 76.8015 53.5871C76.8011 54.7851 75.8298 55.7561 74.632 55.7561V55.7561Z" fill="#F0C11C"/>
<path d="M77.0376 64.394H19.3014C18.1036 64.394 17.1323 65.3651 17.1323 66.5631C17.1323 83.677 31.0556 97.6003 48.1695 97.6003C65.2834 97.6003 79.2067 83.677 79.2067 66.5631C79.2067 65.3653 78.2354 64.394 77.0376 64.394ZM31.6915 87.5543C34.652 82.8091 41.0378 79.7146 48.1695 79.7146C55.301 79.7146 61.6868 82.8091 64.6475 87.5543C60.1061 91.1271 54.3827 93.2621 48.1695 93.2621C41.9562 93.2621 36.2328 91.1271 31.6915 87.5543V87.5543ZM67.864 84.5685C63.9549 78.9752 56.4364 75.3764 48.1693 75.3764C39.9019 75.3764 32.3828 78.9748 28.4741 84.5681C24.585 80.3175 22.0486 74.8096 21.5574 68.7324H74.7809C74.29 74.8098 71.7535 80.3179 67.864 84.5685Z" fill="#F0C11C"/>
</svg>
