<svg id="Capa_1" enable-background="new 0 0 512.008 512.008" height="512" viewBox="0 0 512.008 512.008" width="512" xmlns="http://www.w3.org/2000/svg"><g><path d="m359.924 89.506c-6.914-26.206-30.513-44.502-57.407-44.502-16.934 0-34.193 6.079-46.557 16.553-12.363-10.474-28.623-16.553-45.557-16.553-26.865 0-50.449 18.208-57.319 44.297-5.493 20.815-7.192 75.542 95.479 133.755l7.397 4.189 7.397-4.189c102.686-58.228 102.045-112.793 96.567-133.55z"/><path d="m512.004 211.409c.322-59.985-17.809-128.752-76.377-201.224l-8.232-10.181s-11.488 6.954-11.629 7.04c-21.118 13-25.893 42.048-13.348 63.441 9.974 17.01 17.926 32.106 24.113 42.195 24.155 39.375 25.869 43.184 20.859 77.813l-15.19 115.195-29.736-3.896s11.336-84.908 13.986-125.744c.342-5.294-2.135-10.373-6.515-13.363-4.382-2.988-10.02-3.448-14.821-1.194-22.423 10.532-39.144 32.007-42.557 58.138-2.842 21.724-6.416 42.979-21.387 83.086-16.978 45.703-9.36 69.067 9.023 125.508 6.108 18.706 25.21 83.782 25.21 83.782h146.602s-16.597-44.667-20.054-57.06c-11.353-40.723-21.167-76.879-5.845-117.089 13.137-34.475 25.634-77.542 25.898-126.447z"/><path d="m160.456 219.628c-3.413-26.131-20.134-47.606-42.557-58.138-4.801-2.254-10.439-1.794-14.819 1.194-4.382 2.99-6.859 8.069-6.515 13.363 2.65 40.836 13.984 125.744 13.984 125.744l-29.736 3.896-15.19-115.195c-5.01-34.629-3.296-38.438 20.859-77.813 6.187-10.089 14.139-25.184 24.115-42.195 12.545-21.392 7.767-50.44-13.35-63.441-.141-.086-11.629-7.04-11.629-7.04l-8.232 10.181c-58.568 72.472-77.704 141.239-77.382 201.225.264 48.906 13.764 91.972 26.902 126.447 15.322 40.21 5.508 76.366-5.845 117.089-3.457 12.393-20.054 57.06-20.054 57.06h146.602s19.102-65.076 25.21-83.782c18.384-56.44 26.001-79.805 9.023-125.508-14.97-40.108-18.544-61.363-21.386-83.087z"/></g></svg>